<?xml version="1.0" encoding="UTF-8" standalone="no"?>
<!-- Created with Inkscape (http://www.inkscape.org/) -->

<svg
   version="1.1"
   id="svg2"
   xml:space="preserve"
   width="1024"
   height="1021.5748"
   viewBox="0 0 1024 1021.5748"
   sodipodi:docname="logo.svg"
   inkscape:version="1.1.2 (0a00cf5339, 2022-02-04)"
   xmlns:inkscape="http://www.inkscape.org/namespaces/inkscape"
   xmlns:sodipodi="http://sodipodi.sourceforge.net/DTD/sodipodi-0.dtd"
   xmlns="http://www.w3.org/2000/svg"
   xmlns:svg="http://www.w3.org/2000/svg"><defs
     id="defs6" /><sodipodi:namedview
     id="namedview4"
     pagecolor="#ffffff"
     bordercolor="#666666"
     borderopacity="1.0"
     inkscape:pageshadow="2"
     inkscape:pageopacity="0.0"
     inkscape:pagecheckerboard="0"
     showgrid="false"
     inkscape:snap-bbox="true"
     inkscape:zoom="0.77146086"
     inkscape:cx="464.70277"
     inkscape:cy="854.22351"
     inkscape:window-width="1920"
     inkscape:window-height="1016"
     inkscape:window-x="0"
     inkscape:window-y="0"
     inkscape:window-maximized="1"
     inkscape:current-layer="g8"><sodipodi:guide
       position="0,1021.5748"
       orientation="0,1024"
       id="guide850" /><sodipodi:guide
       position="1024,1021.5748"
       orientation="1021.5748,0"
       id="guide852" /><sodipodi:guide
       position="1024,0"
       orientation="0,-1024"
       id="guide854" /><sodipodi:guide
       position="0,0"
       orientation="-1021.5748,0"
       id="guide856" /></sodipodi:namedview><g
     id="g8"
     inkscape:groupmode="layer"
     inkscape:label="ink_ext_XXXXXX"
     transform="matrix(1.3333333,0,0,-1.3333333,0.67240396,920.86318)"><circle
       style="fill:#005500;fill-opacity:1;stroke:none;stroke-width:8.3203;stroke-linecap:round;stroke-linejoin:round;paint-order:markers fill stroke"
       id="path895"
       cx="383.4957"
       cy="-307.55685"
       transform="scale(1,-1)"
       r="383.09055" /><g
       id="g10"
       transform="matrix(0.1,0,0,0.1,-0.50430298,-24.323366)"><path
         d="m 2564.3,6630.23 c -6.41,-0.7 -12.89,-2.11 -19.46,-4.37 -39.29,-13.48 -67.85,-40.63 -85.19,-78.2 -38.4,-83.05 -18.52,-188.95 12.89,-270.82 7.62,-19.89 17.23,-38.95 26.8,-57.93 -91.61,31.71 -254.26,126.13 -346.8,83.47 -30.08,-13.83 -53.24,-42.11 -64.3,-73 -13.98,-39.07 -4.33,-80.32 14.03,-116.22 36.36,-71.05 100.15,-115.82 162.96,-161.68 -76.01,-55.35 -148.43,-108.32 -217.65,-172.57 -298.09,-276.53 -527.19,-667.58 -591.21,-1071.64 -23.87,-150.55 -23.25,-295.39 10.74,-444.69 -184.1,-119.3 -334.88,-247.5 -494.688,-396.92 -87.891,148.64 -107.973,308.09 -94.262,478.36 4.07,50.71 12.231,101.14 15.75,151.8 -35.941,-43.12 -71.84,-85.74 -99.5,-134.88 -95.66,-169.96 -109.488,-390.32 -92.262,-581.17 6.051,-67.19 18.832,-132.78 32.301,-198.79 -58.508,-91.1 -114.058,-181.02 -163.937,-277.19 -125.082,152.58 -278.75,304.26 -485.9026,324.02 -28.0899,2.66 -56.4492,1.76 -84.6094,0.9 v -32.77 c 63.1211,-74.34 136.328,-136.72 196.289,-215.55 91.871,-120.7 161.133,-279.73 234.492,-414.45 -63.011,-213.56 -25.269,-484.81 26.52,-698.48 -89.762,21.09 -176.871,28.83 -268.352,12.58 -30.59,-5.43 -113.2888,-21.76 -130.8592,-46.76 -0.2812,-6.6 -0.9804,-12.62 2.379,-18.67 3.4023,-6.13 9.0625,-10.16 15.4296,-12.73 55.3906,-22.43 116.3716,-32.43 172.7306,-55.16 87.82,-35.39 166.172,-82.34 234.262,-148.56 158.16,-153.78 244.3,-363.71 371.25,-541.4 C 1243.63,911.52 1791.45,510.59 2412.11,265.98 3162.27,-29.6914 4052.81,-68.0117 4833.2,128.949 c 201.18,50.781 404.69,123.16 594.89,205.852 762.42,331.531 1409.96,931.759 1716.36,1713.909 41.14,105 74.69,214.53 104.42,323.28 32.22,118.05 61.25,239.34 79.1,360.47 7.26,49.73 12.58,99.69 15.9,149.84 3.32,50.2 4.65,100.4 4.02,150.67 -1.01,65.15 -10.39,129.76 -11.76,194.65 -2.11,103 19.73,226.13 57.85,321.72 58.79,147.38 139.03,246.6 286.02,310.31 v 34.3 c -106.05,32.73 -218.87,15.39 -316.05,-36.25 -75.24,-40 -135.28,-94.61 -188.56,-160.59 -42.73,73.51 -86.52,144.57 -134.37,214.92 73.94,279.65 50.03,480.35 -94.81,731.33 -32.97,56.09 -68.55,110.47 -106.83,163.05 35,-218.01 67.96,-443.64 -13.64,-656.02 -139.26,131.29 -300.94,242.38 -465.78,339.02 -55.43,32.54 -128.63,56.33 -177.97,94.61 -33.04,25.67 -61.01,77.19 -86.6,110.9 -28.75,38.05 -58.91,74.88 -90.51,110.59 -234.61,265.35 -576.33,462.54 -938.59,452.19 -110.08,-3.17 -213.09,-24.42 -317.5,-58.64 -25.82,80.16 -60.82,154.61 -100,228.99 -147.97,280.54 -369.18,525.7 -653.99,671.44 -222.46,113.83 -461.91,150.9 -709.41,157.15 -104.22,2.66 -214.3,-5.82 -314.14,29.92 -74.49,26.68 -131.29,78.83 -181.84,138.13 -48.04,56.4 -118.94,195.7 -206.17,205.51 -6.25,0.7 -12.58,0.74 -18.94,0.03 z"
         style="fill:#000000;fill-opacity:1;fill-rule:nonzero;stroke:none"
         id="path12" /><path
         d="m 275.859,2232.15 c 70.391,3.47 134.801,-7.5 200.352,-32.66 25.117,-70.35 55.551,-137.58 87.23,-205.23 -13.211,13.55 -25.711,28.04 -38.441,41.99 -97.23,92.85 -207.539,144.26 -333.789,186.29 28.168,4.14 56.328,7.03 84.648,9.61 z"
         style="fill:#ffffff;fill-opacity:1;fill-rule:nonzero;stroke:none"
         id="path14" /><path
         d="m 1837.11,2064.26 c 27.27,-22.93 50.82,-62.7 74.45,-90.35 37.7,-44.18 80.51,-85.55 124.1,-123.87 -46.09,8.12 -91.25,19.34 -136.64,30.66 -74.02,22.46 -149.88,41.18 -224.72,60.67 49.33,45.31 106.25,87.07 162.81,122.89 z"
         style="fill:#ffffff;fill-opacity:1;fill-rule:nonzero;stroke:none"
         id="path16" /><path
         d="m 7496.68,3837.7 1.68,-3.36 c -130.51,-120.71 -173.32,-292.43 -203.56,-460.47 -6.87,24.76 -14.18,49.37 -21.83,73.9 -19.73,59.07 -44.22,115.78 -69.26,172.78 74.38,109.76 166.37,176.29 292.97,217.15 z"
         style="fill:#ffffff;fill-opacity:1;fill-rule:nonzero;stroke:none"
         id="path18" /><path
         d="m 6927.46,4581.91 c 3.09,-3.71 4.22,-4.76 6.88,-9.53 12.93,-23.16 21.71,-51.95 30.89,-76.79 60.51,-164.07 85.79,-364.85 35.2,-534.77 l -26.13,29.3 c -35.43,43.86 -72.74,86.05 -112,126.52 83.01,139.38 81.68,308.95 65.16,465.27 z"
         style="fill:#ffffff;fill-opacity:1;fill-rule:nonzero;stroke:none"
         id="path20" /><path
         d="m 802.27,4188.98 c 9.332,-26.13 6.71,-59.76 11.75,-87.69 18.949,-104.45 56.332,-192.93 117.031,-280.08 -37.461,-45.7 -78.121,-88.71 -115.43,-134.69 l -56.871,-71.68 c -21.559,196.45 -10.898,383.87 43.52,574.14 z"
         style="fill:#ffffff;fill-opacity:1;fill-rule:nonzero;stroke:none"
         id="path22" /><path
         d="m 144.41,3543.71 c 167.309,-37.58 290.43,-179.8 393.442,-306.41 -19.141,-55.35 -37.622,-110.23 -49.332,-167.77 -4.692,-21.09 -7.7,-42.85 -11.329,-64.18 -98.242,181.8 -176.332,397.11 -332.781,538.36 z"
         style="fill:#ffffff;fill-opacity:1;fill-rule:nonzero;stroke:none"
         id="path24" /><path
         d="m 6879.84,3155.82 -0.11,-6.91 c -19.61,-35.28 -49.5,-68.68 -74.85,-100.08 -156.79,-194.22 -353.43,-365.28 -562.97,-500.71 -33.98,15.94 -68.24,31.18 -102.85,45.71 l -59.18,21.56 c 40.9,52.77 82.11,106.64 129.14,154.1 188.44,190.35 428.64,286.37 670.82,386.33 z"
         style="fill:#ffffff;fill-opacity:1;fill-rule:nonzero;stroke:none"
         id="path26" /><path
         d="m 2053.98,2112.15 c 10.9,0.74 21.84,1.21 32.82,1.4 236.44,3.17 485.97,-123.71 680,-249.72 62.97,-40.9 124.84,-82.58 178.82,-135.16 -52.57,3.21 -105.07,7.85 -157.65,10.86 -111.02,7.97 -221.56,19.65 -331.76,35.04 -110.19,15.39 -219.76,34.45 -328.67,57.19 -35.43,39.41 -77.97,72.77 -115.59,110.15 -44.65,44.34 -85.19,93.79 -127.22,140.63 55,19.34 111.52,25.19 169.25,29.61 z"
         style="fill:#ffffff;fill-opacity:1;fill-rule:nonzero;stroke:none"
         id="path28" /><path
         d="m 918.91,2732.11 c 27.34,0.94 56.559,-4.61 83.2,-10.08 145.74,-29.88 499.45,-150.7 592.27,-257.97 32.53,-37.69 66.36,-126.95 94.29,-174.96 35,-60.15 78.75,-115.74 117.38,-173.71 -33.35,-14.65 -59.84,-34.3 -88.12,-57.07 -38.16,-30.9 -76.84,-60.31 -108.2,-98.4 -36.61,13.63 -73.52,26.56 -108.56,43.91 -24.29,66.05 -39.53,133.98 -69.72,198.05 -104.89,222.53 -312.39,395.42 -512.54,530.23 z"
         style="fill:#ffffff;fill-opacity:1;fill-rule:nonzero;stroke:none"
         id="path30" /><path
         d="m 4364.92,2119.73 c 185.63,23.75 361.33,-65.16 514.18,-158.44 -105.9,-35.31 -215.58,-58.79 -324.3,-83.52 -114.25,-25.97 -228.12,-52.5 -343.94,-70.82 -154.02,-26.17 -308.79,-46.6 -464.34,-61.21 163.83,186.76 362.66,349.34 618.4,373.99 z"
         style="fill:#ffffff;fill-opacity:1;fill-rule:nonzero;stroke:none"
         id="path32" /><path
         d="m 5820.04,2577.38 c 121.33,13.52 241.99,-18 351.17,-69.29 -79.1,-61.06 -183.83,-110.79 -273.87,-155.32 -190.19,-94.02 -385.62,-183.12 -586.36,-252.34 -87.66,-31.95 -177.27,-65.86 -267.19,-90.47 28.87,41.68 58.28,82.97 88.32,123.79 172.54,229.8 396.87,401.95 687.93,443.63 z"
         style="fill:#ffffff;fill-opacity:1;fill-rule:nonzero;stroke:none"
         id="path34" /><path
         d="m 6276.88,4399.92 c 2.18,-0.82 4.37,-1.56 6.52,-2.42 56.29,-21.84 112.65,-64.22 164.18,-96.33 282.89,-176.25 519.65,-399.61 652.03,-711.13 -34.3,-115.86 -75.82,-241.06 -152.62,-336.41 -31.05,-10.19 -61.95,-20.9 -92.65,-32.15 -145.36,-52.18 -280.98,-118 -417.39,-189.8 96.72,379.73 61.68,802.15 -72.46,1168.36 -25.08,68.44 -56.17,134.18 -87.61,199.88 z"
         style="fill:#ffffff;fill-opacity:1;fill-rule:nonzero;stroke:none"
         id="path36" /><path
         d="m 1494.45,4150.55 c 24.03,-28.52 50.24,-100.75 69.73,-137.27 43.63,-81.64 98.09,-154.65 159.14,-223.94 -13.98,-19.03 -26.44,-38.72 -38.2,-59.18 -204.57,-356.61 -238.24,-745.51 -132.62,-1138.32 -135.43,89.8 -302.5,147.07 -459.8,185.43 -63.13,15.39 -294.93,61.32 -343.559,26.25 -8.442,-6.1 -9.571,-11.45 -11.762,-21.18 2.109,-8.71 3.75,-16.36 10.121,-23.16 27.031,-28.91 107.621,-69.3 144.262,-93.01 151.008,-97.58 308.548,-252.34 415.898,-396.87 12.69,-17.7 24.57,-35.98 35.58,-54.77 11.06,-18.79 21.21,-38.05 30.47,-57.77 9.3,-19.73 17.7,-39.81 25.16,-60.31 7.46,-20.47 13.98,-41.25 19.57,-62.31 -56.76,20.59 -111.64,50.12 -165.24,77.81 -175.82,90.78 -331.829,193.4 -465.149,340.82 -31.41,34.77 -62.582,69.38 -89.102,108.13 -98.789,144.26 -141.25,290.27 -107.347,463.59 19.136,97.93 56.878,186.37 102.109,274.61 178.09,347.5 479.769,635.04 800.739,851.45 z"
         style="fill:#ffffff;fill-opacity:1;fill-rule:nonzero;stroke:none"
         id="path38" /><path
         d="m 7163.24,3435.43 c 1.6,-3.36 1.92,-3.83 3.4,-7.89 57.15,-156.13 91.45,-379.1 60.08,-541.37 -9.1,-47.07 -26.8,-94.02 -46.29,-137.69 -64.73,-144.93 -168.59,-269.65 -279.61,-381.29 -353.24,-355.16 -841.52,-621.72 -1306.8,-800.16 -195.5,-75 -396.44,-143.55 -598.55,-198.71 -164.49,-43.98 -330.39,-81.64 -497.74,-113.01 -167.38,-31.36 -335.66,-56.33 -504.92,-74.88 -624.02,-70.08 -1248.55,-62.03 -1865.74,61.33 -274.53,54.84 -549.65,129.02 -805.59,244.53 -318.39,143.75 -593.75,362.58 -721.519,697.38 -59.531,150.9 -80.121,313.21 -90,474.1 38.16,-70.7 74.84,-139.06 123.051,-203.79 190.617,-256.05 487.028,-426.68 779.758,-540.46 299.26,-116.33 610.28,-189.11 927.15,-237.78 28.24,-4.26 56.56,-8.28 84.88,-12.15 28.32,-3.82 56.68,-7.46 85.08,-10.89 28.36,-3.4 56.76,-6.65 85.2,-9.65 28.44,-3.05 56.87,-5.86 85.35,-8.48 28.48,-2.62 56.95,-5 85.47,-7.23 28.51,-2.18 57.03,-4.18 85.55,-5.97 28.55,-1.8 57.07,-3.4 85.66,-4.77 28.55,-1.37 57.11,-2.54 85.66,-3.51 28.6,-0.98 57.15,-1.76 85.75,-2.31 28.59,-0.55 57.14,-0.94 85.74,-1.05 28.59,-0.16 57.19,-0.12 85.78,0.15 28.59,0.28 57.15,0.74 85.74,1.41 28.6,0.66 57.15,1.56 85.74,2.62 28.56,1.09 57.11,2.38 85.67,3.86 28.55,1.53 57.07,3.21 85.62,5.12 28.52,1.91 57.03,4.02 85.51,6.33 28.52,2.3 56.99,4.84 85.43,7.58 28.48,2.69 56.91,5.62 85.31,8.79 28.44,3.12 56.84,6.44 85.2,10 28.36,3.55 56.72,7.26 85.04,11.25 28.28,3.94 56.6,8.08 84.84,12.46 28.24,4.33 56.48,8.9 84.65,13.67 28.2,4.76 56.37,9.73 84.45,14.88 28.13,5.16 56.21,10.55 84.26,16.1 28.05,5.58 56.05,11.36 83.98,17.34 27.97,5.98 55.9,12.15 83.75,18.51 27.89,6.37 55.71,12.93 83.48,19.73 27.77,6.76 55.51,13.75 83.17,20.94 27.65,7.15 55.31,14.53 82.85,22.11 27.57,7.58 55.07,15.31 82.54,23.32 27.46,7.93 54.88,16.09 82.18,24.45 27.35,8.36 54.65,16.92 81.84,25.7 215.23,67.11 426.8,141.18 633.28,232.23 357.11,157.46 731.25,365.04 1013.55,637.31 82.93,80 156.68,167.14 226.61,258.51 101.52,132.66 177.81,255.35 238.51,411.33 z"
         style="fill:#ffffff;fill-opacity:1;fill-rule:nonzero;stroke:none"
         id="path40" /><path
         d="m 7165.2,2500.78 c 0.11,-1.25 0.35,-2.54 0.35,-3.83 0.93,-50.39 -48.67,-183.16 -67.66,-238.43 C 6939.1,1796.37 6737.7,1466.84 6396.05,1117.11 6291.33,1009.84 6176.29,917.621 6056.17,828.199 5426.64,359.41 4650.74,128.48 3869.3,119.488 3081.91,110.391 2287.97,340.902 1650.98,809.219 c -66.84,49.531 -131.8,101.371 -194.89,155.582 -63.08,54.219 -124.1,110.629 -183.12,169.259 -156.49,158.99 -290.2,325.39 -413.669,511.14 35.469,-29.11 70.777,-58.72 108.199,-85.24 217.11,-153.71 471.48,-249.45 724.8,-324.76 858.99,-255.399 1786.68,-264.259 2666.06,-116.84 812.11,136.09 1698.4,426.37 2356.44,934.73 164.69,127.22 329.18,277.61 450.4,447.69 z"
         style="fill:#ffffff;fill-opacity:1;fill-rule:nonzero;stroke:none"
         id="path42" /><path
         d="m 2572.42,6521.84 c 32.27,-27.27 55.9,-66.33 80.39,-100.51 52.03,-72.7 111.99,-140.08 187.66,-188.95 127.54,-82.38 260.12,-81.91 405.86,-84.49 63.87,-1.48 127.65,-4.77 191.33,-9.84 199.84,-16.57 400.11,-67.31 572.77,-171.96 105.27,-63.82 205.59,-141.95 290.51,-231.21 186.52,-196.09 330.74,-472.5 394.65,-734.88 77.3,-317.5 51.13,-646.76 -122.19,-929.41 -223.05,-363.83 -622.62,-570.04 -1022.7,-679.42 -106.4,-29.06 -215.74,-44.8 -322.73,-70.66 290.15,-33.67 584.06,33.55 844.61,161.4 353.04,173.21 599.84,451.29 726.87,822.54 143.17,61.1 327.97,71.21 482.66,57.11 185.35,-16.91 399.37,-93.71 520.55,-241.6 91.75,-111.99 115.93,-253.12 101.95,-394.34 -18.44,-186.71 -116.21,-386.99 -235.27,-531.87 -61.68,-75.08 -137.82,-145.82 -212.93,-207.34 -204.07,-167.23 -483.64,-276.45 -749.03,-249.46 -7.65,0.82 -15.35,1.76 -23,2.78 -7.66,1.01 -15.28,2.07 -22.93,3.24 -7.62,1.17 -15.24,2.42 -22.86,3.75 -7.61,1.33 -15.19,2.77 -22.77,4.26 -7.58,1.48 -15.16,3.04 -22.7,4.72 -7.53,1.64 -15.03,3.36 -22.57,5.2 -7.5,1.8 -14.96,3.71 -22.46,5.66 -7.47,1.96 -14.89,4.03 -22.31,6.17 -7.42,2.11 -14.84,4.34 -22.23,6.61 -7.34,2.3 -14.72,4.64 -22.03,7.11 -7.34,2.42 -14.64,4.96 -21.91,7.53 -7.27,2.62 -14.49,5.28 -21.72,8.05 -7.23,2.74 -14.41,5.59 -21.56,8.48 -7.15,2.89 -14.26,5.86 -21.37,8.94 -7.11,3.05 -14.14,6.17 -21.17,9.38 -7.03,3.2 -14.02,6.48 -20.98,9.84 -6.95,3.36 -13.86,6.8 -20.74,10.28 -6.91,3.51 -13.75,7.07 -20.55,10.74 -6.79,3.63 -13.59,7.34 -20.31,11.13 -6.72,3.79 -13.4,7.66 -20.08,11.6 -6.64,3.91 -13.24,7.93 -19.8,11.99 -6.56,4.07 -13.09,8.25 -19.53,12.43 -6.49,4.21 -12.93,8.51 -19.3,12.85 -6.37,4.33 -12.73,8.75 -19.02,13.24 -6.29,4.49 -12.5,9.02 -18.71,13.63 -6.18,4.61 -12.35,9.3 -18.44,14.06 -6.1,4.73 -12.11,9.54 -18.13,14.42 -5.97,4.88 -11.91,9.8 -17.81,14.8 -5.86,5 -11.72,10.08 -17.5,15.2 -5.74,5.12 -11.48,10.31 -17.15,15.55 -5.66,5.23 -11.29,10.54 -16.83,15.89 -5.55,5.4 -11.06,10.79 -16.49,16.29 -52.54,52.27 -98.44,110.71 -145.04,168.25 l 1.06,-3.83 c 58.4,-207.97 195.35,-360.51 381.79,-465.63 7.31,-4.1 14.69,-8.08 22.11,-11.99 7.43,-3.95 14.89,-7.77 22.43,-11.48 7.5,-3.75 15.07,-7.39 22.65,-10.94 7.62,-3.56 15.28,-6.99 22.97,-10.35 7.66,-3.4 15.39,-6.64 23.16,-9.81 7.78,-3.2 15.59,-6.25 23.44,-9.26 7.85,-2.96 15.71,-5.85 23.63,-8.63 7.93,-2.81 15.86,-5.51 23.83,-8.08 8.01,-2.58 16.02,-5.08 24.07,-7.5 8.04,-2.39 16.09,-4.69 24.21,-6.88 8.09,-2.23 16.22,-4.3 24.38,-6.33 8.12,-1.99 16.29,-3.9 24.49,-5.7 8.2,-1.8 16.41,-3.48 24.65,-5.08 8.24,-1.6 16.52,-3.12 24.77,-4.49 8.28,-1.41 16.6,-2.7 24.88,-3.91 8.32,-1.17 16.64,-2.26 24.96,-3.28 8.36,-0.97 16.68,-1.87 25.04,-2.65 8.36,-0.79 16.72,-1.49 25.08,-2.04 8.4,-0.58 16.75,-1.05 25.15,-1.44 8.4,-0.39 16.76,-0.67 25.16,-0.82 8.4,-0.2 16.8,-0.24 25.16,-0.2 8.39,0.04 16.79,0.16 25.19,0.39 8.4,0.24 16.76,0.59 25.16,1.06 8.36,0.43 16.75,0.97 25.11,1.64 8.36,0.66 16.72,1.41 25.08,2.26 8.32,0.86 16.68,1.8 25,2.86 8.32,1.05 16.64,2.22 24.92,3.51 8.32,1.25 16.61,2.62 24.85,4.06 8.28,1.49 16.52,3.05 24.72,4.73 8.25,1.68 16.45,3.44 24.61,5.31 8.21,1.88 16.37,3.83 24.5,5.9 8.12,2.07 16.21,4.22 24.29,6.49 337.93,94.25 647.31,356.05 818.87,659.14 112.66,199.06 170.59,454.76 107.11,678.86 -46.25,163.32 -161.91,278.75 -308.56,359.03 -253.28,138.67 -578.82,154.72 -854.33,75.11 5.98,36.29 8.2,73.33 11.44,109.93 14.22,192.65 -12.3,375.23 -59.33,561.6 34.02,9.33 68.4,17.26 103.08,23.79 34.69,6.52 69.61,11.6 104.69,15.23 286.41,27.42 554.53,-78.28 772.85,-258.94 356.02,-294.61 562.97,-765.32 605.9,-1219.14 19.45,-205.75 2.5,-405.32 -45.7,-605.82 -9.45,-39.34 -17.58,-90.67 -39.45,-125.08 -21.25,-33.48 -86.29,-72.31 -116.96,-104.38 -58.4,-61.01 -110.62,-127.97 -164.45,-192.97 -141.17,21.57 -267.5,8.75 -401.72,-40.97 -276.29,-102.42 -517.54,-339.92 -640.08,-606.53 -49.96,37.97 -100.82,76.1 -156.13,106.06 -147.54,79.96 -333.01,111.4 -498.91,89.06 -264.72,-35.62 -498.94,-232.54 -655.78,-439.96 -62.81,-9.41 -129.65,-10.2 -193.28,-12.62 -129.34,-5.19 -258.67,-7.15 -388.12,-5.86 -88.21,64.85 -169.14,136.21 -260.86,196.92 -70.78,46.87 -144.96,86.68 -220.98,124.25 -205.86,101.8 -412.62,166.65 -644.3,119.69 -123.4,135 -221.21,281.96 -279.68,456.29 -93.75,279.26 -75.04,588.56 28.04,862.58 30.31,80.55 69.77,157.07 108.05,234.02 171.25,-148.79 386.76,-250.23 606.95,-302.65 -299.65,146.99 -591.52,355.43 -751.44,656.36 -136.02,255.9 -129.1,547.58 -44.89,818.01 125.39,402.62 423.68,822.85 801.96,1021.56 61.05,-8.24 110.19,-7.57 168.71,13.05 -32.46,17.85 -70.08,28.28 -104.53,41.92 -45.94,18.39 -90.12,40.27 -132.58,65.7 -42.62,25.23 -141.8,93.08 -148.13,146.64 -1.29,10.7 -0.19,12.07 6.41,19.49 36.72,10.55 188.95,-61.91 236.33,-76.01 73.01,-21.72 144.41,-19.15 217.97,-31.88 30.35,-5.23 58.43,-21.56 87.93,-30.31 20.27,-5.98 58.32,-14.03 77.5,-3.79 -14.34,20.19 -59.18,36.29 -81.33,51.91 -88.2,62.27 -172.66,191.1 -190.16,298.32 -6.64,40.59 -3.98,81.1 20.43,115.32 z"
         style="fill:#ffffff;fill-opacity:1;fill-rule:nonzero;stroke:none"
         id="path44" /><path
         d="m 2079.57,5049.65 c 32.73,2.19 60.98,-0.86 90.78,-15.7 51.21,-25.47 85.59,-77.11 103.01,-130.28 27.19,-83.08 21.02,-180.86 -19.81,-258.63 -29.06,-55.43 -71.71,-97.03 -132.26,-115.63 -33.83,-5.86 -66.37,-3.55 -97.81,11.06 -50.86,23.59 -85.59,73.55 -102.86,125.62 -27.92,84.18 -18.12,183.29 21.72,262.07 29.73,58.79 74.11,100.75 137.23,121.49 z"
         style="fill:#000000;fill-opacity:1;fill-rule:nonzero;stroke:none"
         id="path46" /><path
         d="m 2155.9,4959.34 c 9.26,0.74 19.57,2.11 28.75,0.39 14.65,-2.7 28.44,-14.3 35.74,-26.92 8.44,-14.53 9.34,-31.91 4.38,-47.77 -6.53,-21.06 -21.25,-31.95 -39.57,-42.5 -10.79,-0.35 -21.92,-0.86 -32.43,1.91 -15.5,4.03 -29.41,16.76 -36.68,30.82 -7.14,13.91 -7.97,29.61 -2.69,44.34 7.5,20.98 23.4,30.51 42.5,39.73 z"
         style="fill:#ffffff;fill-opacity:1;fill-rule:nonzero;stroke:none"
         id="path48" /><path
         d="m 3298.4,4951.88 c 34.02,3.67 66.87,-0.16 97.73,-15.79 52.03,-26.25 85.28,-78.39 103.17,-132.26 28.55,-86.02 25.23,-189.26 -15.86,-270.74 -30.9,-61.33 -74.06,-99.46 -139.34,-121.33 -30.43,-6.6 -61.91,-0.98 -90.08,11.72 -52.03,23.47 -89.96,77.85 -108.71,130.47 -31.13,87.34 -22.11,192.5 18.36,275.23 29.42,60.08 71.06,100.43 134.73,122.7 z"
         style="fill:#000000;fill-opacity:1;fill-rule:nonzero;stroke:none"
         id="path50" /><path
         d="m 3390.35,4865.55 c 10.16,-0.9 20.98,-1.84 30.43,-6.02 17.58,-7.73 32.5,-22.81 38.75,-41.13 0.7,-2.03 1.33,-4.14 1.84,-6.25 0.51,-2.11 0.9,-4.26 1.21,-6.41 0.27,-2.19 0.47,-4.33 0.54,-6.52 0.08,-2.15 0.04,-4.34 -0.11,-6.52 -0.12,-2.15 -0.39,-4.34 -0.74,-6.49 -0.36,-2.15 -0.82,-4.26 -1.41,-6.37 -0.59,-2.11 -1.25,-4.18 -2.03,-6.21 -0.78,-2.03 -1.68,-3.98 -2.66,-5.93 -10.51,-20.86 -27.03,-29.61 -48.2,-37.08 -14.53,-0.15 -27.81,0.08 -41.17,6.45 -15.67,7.46 -28.17,20.2 -33.4,36.95 -5.24,16.8 -2.7,35.2 5.58,50.55 11.33,21.09 29.11,33.52 51.37,40.98 z"
         style="fill:#ffffff;fill-opacity:1;fill-rule:nonzero;stroke:none"
         id="path52" /><path
         d="m 2570.2,4651.02 c 23.24,1.6 48.67,-0.82 71.6,-4.73 88.47,-15.2 162.89,-64.41 214.18,-137.77 46.6,-66.68 77.46,-159.18 61.99,-240.82 -10.35,-54.58 -42.07,-100.28 -88.05,-131.02 -122.46,-81.88 -339.26,-48.28 -477.81,-19.96 -81.41,15.23 -312.07,77.15 -370.47,120.62 -7.19,5.36 -12.34,10.78 -13.2,19.93 -1.1,11.99 2.15,25.78 10.27,34.92 20.16,22.85 76.52,34.57 105.08,48.28 22.77,10.9 44.84,23.79 66.01,37.46 143.64,92.66 235.94,257.81 420.4,273.09 z"
         style="fill:#000000;fill-opacity:1;fill-rule:nonzero;stroke:none"
         id="path54" /><path
         d="m 2583.83,4546.02 c 2.89,-0.04 5.78,-0.12 8.71,-0.24 61.17,-2.3 112.66,-30.08 153.4,-75.12 38.28,-42.3 70.62,-107.18 66.48,-165.35 -2.11,-29.65 -15.74,-56.17 -39.1,-74.65 -70.82,-56.13 -245.35,-35.15 -333.01,-22.85 -87.19,10.39 -172.3,37.11 -254.65,66.45 44.14,26.52 84.69,55.23 123.68,88.94 80.97,69.92 161.32,172.23 274.49,182.82 z"
         style="fill:#ffffff;fill-opacity:1;fill-rule:nonzero;stroke:none"
         id="path56" /></g></g></svg>
